HIERARCHY
ROOT Hips
{
    OFFSET 0.000000 0.000000 0.000000
    CHANNELS 6 Xposition Yposition Zposition Zrotation Xrotation Yrotation
    JOINT Spine
    {
        OFFSET -0.000000 7.246840 0.000000
        CHANNELS 3 Zrotation Xrotation Yrotation
        JOINT Spine1
        {
            OFFSET -0.000000 20.289354 0.000000
            CHANNELS 3 Zrotation Xrotation Yrotation
            JOINT Neck
            {
                OFFSET -0.000000 20.206032 1.836912
                CHANNELS 3 Zrotation Xrotation Yrotation
                JOINT Head
                {
                    OFFSET -0.000000 12.372654 -1.767522
                    CHANNELS 3 Zrotation Xrotation Yrotation
                    End Site
                    {
                        OFFSET -0.000000 22.094025 0.000000
                    }
                }
            }
            JOINT LeftShoulder
            {
                OFFSET 3.465871 17.201674 -0.568930
                CHANNELS 3 Zrotation Xrotation Yrotation
                JOINT LeftArm
                {
                    OFFSET 14.070313 0.000000 0.000000
                    CHANNELS 3 Zrotation Xrotation Yrotation
                    JOINT LeftForeArm
                    {
                        OFFSET 26.549477 0.000000 0.000000
                        CHANNELS 3 Zrotation Xrotation Yrotation
                        JOINT LeftHand
                        {
                            OFFSET 18.880413 0.000000 0.000000
                            CHANNELS 3 Zrotation Xrotation Yrotation
                            End Site
                            {
                                OFFSET 13.256415 0.000000 0.000000
                            }
                        }
                    }
                }
            }
            JOINT RightShoulder
            {
                OFFSET -3.526370 17.201674 -0.568930
                CHANNELS 3 Zrotation Xrotation Yrotation
                JOINT RightArm
                {
                    OFFSET -14.070313 0.000000 0.000000
                    CHANNELS 3 Zrotation Xrotation Yrotation
                    JOINT RightForeArm
                    {
                        OFFSET -26.549477 0.000000 0.000000
                        CHANNELS 3 Zrotation Xrotation Yrotation
                        JOINT RightHand
                        {
                            OFFSET -18.880413 0.000000 0.000000
                            CHANNELS 3 Zrotation Xrotation Yrotation
                            End Site
                            {
                                OFFSET -13.256415 0.000000 0.000000
                            }
                        }
                    }
                }
            }
        }
    }
    JOINT LeftUpLeg
    {
        OFFSET 8.837609 0.000000 0.000000
        CHANNELS 3 Zrotation Xrotation Yrotation
        JOINT LeftLeg
        {
            OFFSET -0.000000 -41.345005 0.000000
            CHANNELS 3 Zrotation Xrotation Yrotation
            JOINT LeftFoot
            {
                OFFSET -0.000000 -35.500874 0.000000
                CHANNELS 3 Zrotation Xrotation Yrotation
                JOINT LeftToeBase
                {
                    OFFSET -0.000000 -5.744446 13.256415
                    CHANNELS 3 Zrotation Xrotation Yrotation
                    End Site
                    {
                        OFFSET -0.000000 0.000000 3.535044
                    }
                }
            }
        }
    }
    JOINT RightUpLeg
    {
        OFFSET -8.837609 0.000000 0.000000
        CHANNELS 3 Zrotation Xrotation Yrotation
        JOINT RightLeg
        {
            OFFSET -0.000000 -41.345005 0.000000
            CHANNELS 3 Zrotation Xrotation Yrotation
            JOINT RightFoot
            {
                OFFSET -0.000000 -35.500874 0.000000
                CHANNELS 3 Zrotation Xrotation Yrotation
                JOINT RightToeBase
                {
                    OFFSET -0.000000 -5.744446 13.256415
                    CHANNELS 3 Zrotation Xrotation Yrotation
                    End Site
                    {
                        OFFSET -0.000000 0.000000 3.535044
                    }
                }
            }
        }
    }
}
MOTION
Frames:    9
Frame Time:    0.010000
2.593158    82.767570    -100.172951    2.231930    0.540550    0.195618    -2.981987    -13.858648    0.000804    -3.306140    3.562318    0.466248    7.113182    34.591270    -5.483873    1.786935    -13.380265    -3.940772    0.000000    0.000000    0.000000    0.000000    0.000000    0.000000    0.000000    0.000000    0.000000    0.000000    0.000000    0.000000    -14.561405    1.176158    10.952629    16.546947    3.967474    10.062573    -1.186446    -4.704496    -6.823282    0.043055    -4.769545    14.471060    -2.806245    10.810423    1.362104    -2.283713    -8.662821    -12.397880    2.940246    3.611953    1.774542    -1.200357    -6.595658    1.752558    -4.808511    7.549946    -2.776851    6.910985    -4.773242    3.309739    -3.700037    -3.742559    -8.410942    0.330550    -1.112002    -0.600012    
2.605760    82.766724    -100.172981    2.232700    0.539659    0.199215    -2.981057    -13.854757    0.002901    -3.297522    3.549723    0.467332    7.020829    34.589844    -5.485037    1.902532    -13.354667    -3.929970    0.000000    0.000000    0.000000    0.000000    0.000000    0.000000    0.000000    0.000000    0.000000    0.000000    0.000000    0.000000    -14.557380    1.170786    10.962234    16.549303    4.008178    10.037973    -1.199316    -4.735384    -6.803193    0.095360    -4.794348    14.479723    -2.843099    10.835624    1.487476    -2.179946    -8.768634    -12.745652    2.709522    3.710107    1.810876    -1.286449    -6.801912    1.880888    -4.821808    7.549536    -2.779169    6.913263    -4.770804    3.352207    -3.680362    -3.754717    -8.466441    0.289605    -1.112626    -0.525694    
2.618245    82.767319    -100.173882    2.229602    0.544327    0.202513    -2.972733    -13.857507    0.004109    -3.294476    3.543312    0.467357    6.993983    34.581814    -5.481643    1.928158    -13.338779    -3.925685    0.000000    0.000000    0.000000    0.000000    0.000000    0.000000    0.000000    0.000000    0.000000    0.000000    0.000000    0.000000    -14.559348    1.170118    10.961456    16.558802    4.009710    10.039614    -1.203447    -4.740132    -6.804092    0.113071    -4.797087    14.509842    -2.845237    10.832585    1.479333    -2.205380    -8.757830    -12.617319    2.769139    3.688835    1.750516    -1.246857    -6.773233    1.822650    -4.824736    7.541243    -2.791037    6.912589    -4.758054    3.357790    -3.626001    -3.785329    -8.524116    0.239328    -1.028563    -0.434028    
2.630422    82.767342    -100.172165    2.227775    0.539373    0.194385    -2.972378    -13.849322    0.011265    -3.277771    3.533758    0.473566    7.024864    34.563755    -5.499555    1.863356    -13.321620    -3.956828    0.000000    0.000000    0.000000    0.000000    0.000000    0.000000    0.000000    0.000000    0.000000    0.000000    0.000000    0.000000    -14.568872    1.161147    10.955424    16.570007    4.068154    10.036510    -1.208114    -4.772494    -6.790297    0.091641    -4.832282    14.505733    -2.863652    10.850491    1.558874    -2.228139    -8.760550    -12.444109    2.828343    3.693626    1.588393    -1.227778    -6.734987    1.794294    -4.836328    7.542521    -2.777202    6.912333    -4.750892    3.384878    -3.608251    -3.782965    -8.555831    0.220809    -1.048600    -0.400532    
2.645203    82.767555    -100.171898    2.227401    0.538837    0.193154    -2.972525    -13.846192    0.014470    -3.259178    3.527342    0.475991    6.971692    34.533737    -5.496912    1.903097    -13.277426    -3.956676    0.000000    0.000000    0.000000    0.000000    0.000000    0.000000    0.000000    0.000000    0.000000    0.000000    0.000000    0.000000    -14.583130    1.174023    10.950326    16.564487    4.100975    10.056446    -1.184668    -4.789223    -6.815079    0.041233    -4.854268    14.538319    -2.862937    10.842474    1.513435    -2.221222    -8.751010    -12.529376    2.827314    3.687840    1.665801    -1.229501    -6.752429    1.797025    -4.843579    7.546145    -2.793978    6.916189    -4.751094    3.335736    -3.585139    -3.804024    -8.509069    0.217626    -0.982038    -0.394469    
2.659008    82.767723    -100.171326    2.226711    0.535435    0.190569    -2.968166    -13.839185    0.018425    -3.250612    3.516560    0.478628    6.974738    34.528423    -5.516925    1.882473    -13.266278    -3.982760    0.000000    0.000000    0.000000    0.000000    0.000000    0.000000    0.000000    0.000000    0.000000    0.000000    0.000000    0.000000    -14.588176    1.173082    10.954764    16.557957    4.166141    10.062392    -1.183511    -4.815537    -6.831051    0.005223    -4.885259    14.536276    -2.891295    10.859174    1.590986    -2.187844    -8.784741    -12.557173    2.757631    3.713488    1.605207    -1.244638    -6.799434    1.819732    -4.852887    7.548870    -2.789286    6.909644    -4.753136    3.384586    -3.655315    -3.738225    -8.469575    0.331532    -1.119604    -0.601844    
2.672487    82.768250    -100.169373    2.220660    0.533413    0.197427    -2.952937    -13.832065    0.023676    -3.264688    3.502098    0.481722    6.946733    34.484993    -5.508712    1.927177    -13.207138    -3.972154    0.000000    0.000000    0.000000    0.000000    0.000000    0.000000    0.000000    0.000000    0.000000    0.000000    0.000000    0.000000    -14.581572    1.165278    10.952976    16.562965    4.222601    10.064248    -1.186198    -4.833817    -6.840945    -0.005854    -4.905210    14.496681    -2.875246    10.858212    1.535030    -2.226802    -8.764151    -12.480655    2.799512    3.696719    1.606869    -1.217134    -6.750478    1.778928    -4.848947    7.558617    -2.822714    6.896720    -4.764783    3.369418    -3.638384    -3.736127    -8.455421    0.265183    -1.126125    -0.481433    
2.687085    82.767906    -100.168488    2.217175    0.532936    0.197039    -2.955255    -13.823231    0.027191    -3.239985    3.482083    0.484039    6.888803    34.460979    -5.498642    1.973597    -13.173862    -3.962811    0.000000    0.000000    0.000000    0.000000    0.000000    0.000000    0.000000    0.000000    0.000000    0.000000    0.000000    0.000000    -14.605847    1.160521    10.962002    16.567797    4.281153    10.052562    -1.193655    -4.870825    -6.839929    -0.004714    -4.942486    14.471826    -2.900325    10.832662    1.825512    -2.177268    -8.735798    -13.091982    2.695162    3.689020    1.768363    -1.318318    -6.850575    1.928120    -4.857770    7.558886    -2.805397    6.898270    -4.761312    3.393776    -3.612270    -3.761021    -8.500806    0.271464    -1.051872    -0.492433    
2.700947    82.767975    -100.165535    2.214099    0.528054    0.203560    -2.955709    -13.813587    0.019568    -3.225971    3.475989    0.475730    6.850020    34.421570    -5.483088    1.987063    -13.138292    -3.953775    0.000000    0.000000    0.000000    0.000000    0.000000    0.000000    0.000000    0.000000    0.000000    0.000000    0.000000    0.000000    -14.605068    1.121795    10.965897    16.564007    4.332325    10.061954    -1.221554    -4.918398    -6.848155    0.034384    -4.986880    14.449611    -2.893691    10.828263    1.801908    -2.270737    -8.645267    -12.701913    2.884279    3.590789    1.623741    -1.201454    -6.656716    1.754890    -4.862692    7.573883    -2.797341    6.897120    -4.774512    3.365290    -3.610570    -3.762246    -8.483551    0.280503    -1.056767    -0.508858    
